<mxfile host="Electron" modified="2023-10-14T16:03:51.874Z" agent="Mozilla/5.0 (Windows NT 10.0; Win64; x64) AppleWebKit/537.36 (KHTML, like Gecko) draw.io/22.0.2 Chrome/114.0.5735.289 Electron/25.8.4 Safari/537.36" etag="rWlCcxpzkvdgIS1Ov7y-" version="22.0.2" type="device">
  <diagram name="Page-1" id="DOiVybwYM-BciTYNC6Ko">
    <mxGraphModel dx="1434" dy="844" grid="1" gridSize="10" guides="1" tooltips="1" connect="1" arrows="1" fold="1" page="1" pageScale="1" pageWidth="850" pageHeight="1100" math="0" shadow="0">
      <root>
        <mxCell id="0" />
        <mxCell id="1" parent="0" />
        <mxCell id="1bbq5gz2MpMv35pWeNZD-1" value="Tome Portal" style="rounded=0;whiteSpace=wrap;html=1;" vertex="1" parent="1">
          <mxGeometry x="110" y="170" width="80" height="80" as="geometry" />
        </mxCell>
        <mxCell id="1bbq5gz2MpMv35pWeNZD-5" style="edgeStyle=orthogonalEdgeStyle;rounded=0;orthogonalLoop=1;jettySize=auto;html=1;" edge="1" parent="1" source="1bbq5gz2MpMv35pWeNZD-3" target="1bbq5gz2MpMv35pWeNZD-4">
          <mxGeometry relative="1" as="geometry" />
        </mxCell>
        <mxCell id="1bbq5gz2MpMv35pWeNZD-3" value="Discord" style="shape=image;verticalLabelPosition=bottom;labelBackgroundColor=default;verticalAlign=top;aspect=fixed;imageAspect=0;image=data:image/jpeg,/9j/4AAQSkZJRgABAQEAAAAAAAD/4QBCRXhpZgAATU0AKgAAAAgAAYdpAAQAAAABAAAAGgAAAAAAAkAAAAMAAAABAAAAAEABAAEAAAABAAAAAAAAAAAAAP/bAEMACwkJBwkJBwkJCQkLCQkJCQkJCwkLCwwLCwsMDRAMEQ4NDgwSGRIlGh0lHRkfHCkpFiU3NTYaKjI+LSkwGTshE//bAEMBBwgICwkLFQsLFSwdGR0sLCwsLCwsLCwsLCwsLCwsLCwsLCwsLCwsLCwsLCwsLCwsLCwsLCwsLCwsLCwsLCwsLP/AABEIAdoB2gMBIgACEQEDEQH/xAAfAAABBQEBAQEBAQAAAAAAAAAAAQIDBAUGBwgJCgv/xAC1EAACAQMDAgQDBQUEBAAAAX0BAgMABBEFEiExQQYTUWEHInEUMoGRoQgjQrHBFVLR8CQzYnKCCQoWFxgZGiUmJygpKjQ1Njc4OTpDREVGR0hJSlNUVVZXWFlaY2RlZmdoaWpzdHV2d3h5eoOEhYaHiImKkpOUlZaXmJmaoqOkpaanqKmqsrO0tba3uLm6wsPExcbHyMnK0tPU1dbX2Nna4eLj5OXm5+jp6vHy8/T19vf4+fr/xAAfAQADAQEBAQEBAQEBAAAAAAAAAQIDBAUGBwgJCgv/xAC1EQACAQIEBAMEBwUEBAABAncAAQIDEQQFITEGEkFRB2FxEyIygQgUQpGhscEJIzNS8BVictEKFiQ04SXxFxgZGiYnKCkqNTY3ODk6Q0RFRkdISUpTVFVWV1hZWmNkZWZnaGlqc3R1dnd4eXqCg4SFhoeIiYqSk5SVlpeYmZqio6Slpqeoqaqys7S1tre4ubrCw8TFxsfIycrS09TV1tfY2dri4+Tl5ufo6ery8/T19vf4+fr/2gAMAwEAAhEDEQA/APXKKKKACiiigAooooAKKKKACiiigAooooAKKKKACiiigAooooAKKKKACiiigAooooAKKKKACiiigAooooAKKKKACiiigAooooAKKKKACiiigAooooAKKKKACiiigAooooAKKKKACiiigAooooAKKKKACiiigAooooAKKKKACiiigAooooAKKKKACiiigAooooAKKKKACiiigAooooAKKKKACiiigAooooAKKKKACiiigAooooAKKKKACiiigAooooAKKKKACiiigAooooAKKKKACiiigAooooAKKKKACiiigAooooAKKKKACiiigAooooAKKKKACiiigAooooAKKKKACiiigAooooAKKKKACiiigAooooAKKKKACiiigAooooAKKKKACiiigAooooAKKKKACiiigAooooAKKKKACiiigAooooAKKKKACiiigAooooAKKKKACiiigAooooAKKKKACiiigAooooAKKKKACiiigAooooAKKKKACiiigAooooAKKKKACiiigAooooAKKKKACiiigAooooAKKKKACiiigAooooAKKKKACiiigAooooAKKKKACiiigAooooAKKKKACiiigAooooAKKKKACiiigAooooAKKKKACiiigAooooAKKKKACiiigAooooAKKKKACiiigAooooAKKKKACiiigAooooAKKKKACigkDqcVE1xbJ96WMfVhTUW9gJaKajpIoZGDKehByKdS2AKKKKACiiigAooooAKKKKACiiigAooooAKKCQASeg61CLq0JwJo8+m4VSi3sguTUUgdG+6wP0NLUgFFFFABRRRQAUUUUAFFFFABRRRQAUUUUAFFFFABRRRQAUUUUAFFFFABRRRQAUUUUAFFFFABRRRQAUUUUAFFFFABRRRQAUU15I4lLSOqqO7HFZFzr1tGSsKmRh36LW1KhUrO0FcmUlHc2arzX1lACZJkBHYEE1ylzqt/cZBkKIf4U4/WqJLNyxJ+pzXrUspb1qP7jCVfsdLP4hgXIhjL+7cCs+XXdQfIUqgPoAayaciSSEKisxPZRmvShgaFNbfeYupJk0l7ey/fmf8AAkfyqEvIerMfqSa0rfRL+bBZRGv+31/KtKDw/brgzSM/sOBUzxeGo6J/cNU5yINAvCGa1c8H5o8+vcV0dVoLGzt8GKIAjv1NWa+dxVWFWo5wVrnXCLirMKKKK5SwooooAKKKKACiiigAooooAKKKKAMzWLz7NbFVP7yXKj2Hc1yO5uu45+td5Nb29wMSoGHvWZPoFm+TEzRn8x+tezgcZRow5ZLXuc9WnKTujmkuLlPuyyD/AIEauRaxqMXHmbh6MM1PPoN7GCYysgHYdfyrLlgnhOJY2U/7Qr14vD4haWZzvngbkPiFxgTxAjuVPP5VqQarp8+MShWPZ+K4uisKmW0Z/DoXGtJbnoKsrDKkEeoOaWuGgvby3IMcrD2JyP1rZtvEI+VbmP6sn+FeVWyyrDWGqNo1ovc6CioYLq2uVDRSK3tnkfUVNXmSi4uzRve4UUUUgCiiigAooooAKKKKACiiigAooooAKKKKACiiigAooooAKKKKACiiigAooooAKKOByay77WLa2BSIiSX0HQfU1rSpTqy5YK5MpKKuzSkliiUvIwVR1JOKxLzXo1ylqu5um89B9Kw7m9urtiZXOOyjoKrV72HyuMfeq6v8DmnWb+Ennurq4JMsjNntnj8qgoqe3tbm5YLDGW9TjgfU16vu049kYatkFWrexvLo/uozj+8eBW/Z6FbxBXuD5j9dv8IrYREQBUUKB0AGK8nEZpGOlJX8zeNBv4jDtdAiXDXL7j/dXp+dbEVtbQACOJVx7c/nTnlijGZHVR7mqE+tafDkBvMYdk5rypTxGKfVm9oQNKiuZm8QztkQxqo9T1qjLqmoy5zMQPReK3hldaXxWRDrRWx2LzQR/fkRfqRVWTVNOj6zKf8Ad5rjWklc5Z2P1JpldsMpivikZuu+iOtfXdPXpvb6Cq7eIoR9yFj9eK5qiuiOWUFurkutI328RS/wwL+JNRHxDdnpEg/E1i0VssDh19kn2s+5sf2/ff3UpP7ev/RayKKr6nQ/lQvaS7mv/b99/dSnDxBeDrGh/Gsail9SofyoPaS7m6viKf8AihT8zUy+Io/44SPpXOUVDy/Dv7I/az7nVpr9i33g6/hU6avprnHmgf73FcbRWEsrova6KVeR3qXNrJ9yZG+hqXIPSvPwzr0Zh9CRViLUL+H7kzfQ8/zrlnlL+xI0VfujuKZJFDKMSIrD3ArmItfvUI8xVcfkf0rTg16ykwJA0Z9+lcU8BiKWqX3GiqxkF1odnNkxZif25FYlzpN9bZJTeg/iTmutiubab/Vyo30NS8HryKulj69F2lr6ilSjLY89wRwetFdld6TZXWW27JCPvL6/SucvNLu7QklS8fZ15/Ovbw+OpVtNmc0qUolOOWWIho3ZSPQ1tWevSptS6G9em8feFYVFb1sPTrK00TGbjsd5b3VtcruhkDeo7j6ipq4GGeaBg8TlWHpXQ2Guq5WO6wrdA46H614OJy2dP3qeq/E6oVk9GbtFIro6hkYMp6EcilrydjcKKKKACiiigAooooAKKKKACiiigAooooAKKKKACiiigAooooAKZLLHDG8khAVRkk0+ub12+3sLWM/KvMhHc+ldOGoOvUUEROXKrkOoazNcbo4MpF0J/iasfk9aKK+tpUYUY8sEcEpOTuwpQCSAAST0AqSCCa4kWOJSzH07fWumstMtbFBNclDKBklui/SssRioUFrq+xUIORn2GiSTbZbnKJ1C/wARHvXRxRQW6BI1VFUew/M1lXWvW0WVgHmMOAf4awrnUb25J3yEKf4V4FeU6GJxjvU91G/NCntqdNdavY22Rv3uP4U5rGuNeupMiFRGPXvWNRXfRy6jT1au/MylWkySSeeYkySMx9yajoorvSS0RkFFFFMAooooAKKKKACiiigAooooAKKKKACiiigAooooAKKKKACiiigByvIhyrMCPQkVo22tX0GAzeYg7N1/Osyis6lGFRWmrjUmtjq7bXbObCy5iY+v3a1FaKVcqVdSO2CDXAVPDdXVuQYpWXHbPFeVWyqL1pOxvGu/tHQ3+iRS7pbbCSdSv8Jrm5YZYHaOVSrDsa3rTxAOFuk/4Gv9a0JYtO1SI7WRjj5WH3lNRTxFfCvlrq8e43CM9Y7nG0VcvbC4snw4yhPyuOhqnXtQnGceaLujmaa0ZfsdTubNgAS0XdG/pXVWd5Bex+ZGeRwynqDXDVe0y8azuFJJ8tyFcfXvXnY3BRqxc4L3vzNqdRxdnsdpRSKwZVYHIIBH40tfLnaFFFFABRRRQAUUUUAFFFFABRRRQAUUUUAFFFFABRRRQBWvrpbS3klJ+bGEHqxriJHaR3kY5ZiSfxrX12886cQIfki6+7VjV9Tl2H9lT5nuzirS5nYKnt7d526hUBG9z0AqCnb32hdx2jsOlehK7VomK8za/tCy09DFZIHlxhpWHGay7i8u7o5lkYj0zwKr0VjTw8Kb5t33ZTm3oFFFFdBIUUUUAFFFFABRRRQAUUUUAFFFFABRRRQAUUUUAFFFFABRRRQAUUUUAFFFFABRRRQAUUUUAFFFFABUkU00LB4nZWHoajooaTVmBtQ6yJUMF/GJI243Aciqd3aRoTLauJIDzx1XPY1Rpyu6Z2sRng+9c0cOqcuanp5dC3O6sxtFFFdJB1WiXvnwmBz+8i6Z7rWxXD2Fy1pcxSj7uQrj1Brt0ZXVXU5VgCPxr5bMcP7KrzLZnbRlzKwtFFFeabBRRRQAUUUUAFFFFABRRRQAUUUUAFFFFABVe9uFtraaUnkKQv1PSrFc34gui0kdsp4Ubnx6murCUfbVVHoRUlyxuYbsXd3JyWJY/jTaKK+x2PPCiiigAooooAKKKKACiiigAooooAKKKKACiiigAooooAKKKKACiiigAooooAKKKKACiiigAooooAKKKKACiiigAooooAKKKKACiiigAooooAK6vQ7oTW/ksfnh4/4DXKVe0u5NtdxNnCOdr/Q1x42j7ak11WppTlyyO0ooBBAI6GivkDvCiiigAooooAKKKKACiiigAooooAKKKKAGSyLFHJI3RFLflXC3EzTzSyt1diR9K6bXbnyrYQg/NKf0FcpX0eVUeWDqPqcleV3YKKKK9g5wooooAKKKKACiiigAooooAKKKKACiiigAooooAKKKKACiiigAooooAKKKKACiiigAooooAKKKKACiiigAooooAKKKKACiiigAooooAKKKKACgEggjqORRRQB2elXP2m0jJPzINjfhV+uX0G58ud4GPyyjK/UV1FfIY2j7Ks10ep305c0QooorjNAooooAKKKKACiiigAooooAKKKgu5hBbzSn+FTj6npVRi5NJCehy2s3BnvJBn5Y/kH1HWs2nOxdnc9WJY/jTa+1pU1TgoLoedJ3dwooorQQUUUUAFFFFABRRRQAUUUUAFFFFABRRRQAUUUUAFFFFABRRRQAUUUUAFFFFABRRRQAUUUUAFFFFABRRRQAUUUUAFFFFABRRRQAUUUUAFFFFABRRRQBLBI0U0UgOCrqfwzXdROJI45B0dQ351wFdZodx51r5ZPzRHH4dq8bNaXNBVF0OihLWxrUUUV86dYUUUUAFFFFABRRRQAUUUUAFYniCbbBFCDzI2SPYVt1x+sz+deOAfljGwfUda9HLqXPXT7amVaVombRRRX1RwhRRRQAUUUUAFFFFABRRRQAUUUUAFFFFABRRRQAUUUUAFFFFABRRRQAUUUUAFFFFABRRRQAUUUUAFFFFABRRRQAUUUUAFFFFABRRRQAUUUUAFFFFABRRRQAVr6FOI7sxk8Srj8RWRUsEhimhkBxtdT+Gaxr0/a05Q7lRdmmd7RTYnEkcbjo6hvzp1fFtW0PRCiiikAUUUUAFFFFABRRRQAyZxHFK5ONqMf0rg5XMkkjn+Ji3511utT+VZOAfmkIUVx9fRZTTtBz7nJXetgooor2TnCiiigAooooAKKKKACiiigAooooAKKKv2Wl3V5hgNkfd2/pUVKkaa5puyGk3oihRXWQaFYxgGTMje/A/SrY03TwMeQteZLNaSdkmzZUJHEUV2E2i6dKDtQo3qpNYt5otzbAvH+8jHJx94D6VvRzCjVdr2fmTKlKJk0UUV3mQUUUUAFFFFABRRRQAUUUUAFFFXbPTbq8OUXbH3dun4VE6kaa5pOyGk3oilRXV2+g2UYBlJkb34H6VcGm6eBgQLXmzzWknaKbNlQl1OIorsJtG06UHCFD6qTWNeaJcwAvCfMQckfxAfStaOYUartez8yZUpRMiilIIJB4I65pK9AyCiiigAooooAKKKKACiiigAooooAKKKKAOy0eYS2UXPKZQ/hWhXOeHp8NPAT1AZfwro6+QxtP2deSO+m7xQUUUVxmgUUUUAFFFFABRRRQBzniKUl4Is8Abj+NYFaGrzebezc8J8g/Cs+vscHDkoxR59R3kwooorqICiiigAooooAKKKKACiiigAooqe0t2uZ4oV/iYZ9hSlJRTkwSvoaOk6YblhPMP3KngH+M11KqiKFQAKBgAU2KJIY0jQYVAAKfXyGKxMsRO726HoQgoIKKKK5Cwo4PBoooAwdX0pSrXNsuGHMijuPUVzdehEAgg9Dwa4/V7P7LcsVH7uX5l+vcV9DluLc/3U/kclanb3kZtFFFe0c4UUUUAFFFFABRRUtvC9xNFEo5dgPwpSairsNzQ0nTTdv5soIgQ/8AfR9K6tESNQiKFUDAApsEKQRRxIMBFAqSvkcXiZYid+nQ76cFBBRRRXGaBRRRQBh6tpSyK1xbqBIvLqP4h61zRBBIPUcGvQa5HWbP7NceYg/dzfMPY969/LcW5fuZ/I5a1O3vIy6KKK9w5gooooAKKKKACiiigAooooAKKKKAL+lS+VewHOAx2n8a7OuAicpJG4/hZT+Rru4XEkUTj+JFP5ivn82haUZnVQejRJRRRXiHSFFFFABRRRQAUyVgkUrn+FGP6U+qWqSeXZXBz1XA/GtKceeaj3E3ZXONlcySSOf4mJplFFfbpWVjzQooooAKKKKACiiigAooooAKKKKACug8PQgmecjkfItc/XWaCgWzJ/vOT+ledmU+Wg7dTWiryNaiiivlTuCiiigAooooAKytchWSzL4+aNgQfatWq1+oe0uQf+ebH9K3w83CrGS7kzV4tHDUUHvRX2h5wUUUUAFFFFABW74egDSyzn+AbV+tYVdT4fUC1kbu0hrgzGbjQduprRV5GzRRRXyZ3BRRRQAUUUUAFZutQiWykOPmjIYfhWlUN2oa2uVPeNv5VtRnyVIyXcmSumjg6KVhhmHoSKSvtTzgooooAKKKKACiiigAooooAKKKKACuy0eXzbKL1TK/lXG10vh6TMU8fdWB/OvMzOHNQv2ZtRdpG7RRRXy52hRRRQAUUUUAFY3iCXbbRxg/fbn8Oa2a5nxDJmaGP+6u7867svhzV4+RlVdosw6KKK+tOEKKKKACiiigAooooAKKKKACiiigArrdCYGyA/uuR+lclXR+HZRsnhJ5B3AfpXm5nHmoN9jai7SN+iiivljtCiiigAooooAKr3pC2lyT/wA82/lVis3WZRHZSDPLkKPxrahHmqRj5kydkzkD1P1pKKK+1POCiiigAooooAK6rQGBtHHcSH+VcrXQeHZQDPCTyfnFefmUeag/I1ou0joqKKK+UO4KKKKACiiigAqK5O23uD6Rt/KpaoatL5VlOc4LDYPxrWjHmqRiu5MnZXONblmPqxP60lFFfbHnBRRRQAUUUUAFFFFABRRRQAUUUUAFbGgS7LpkzxIp/SsermmyeXeW7erBfzrnxMOejKPkVB2kmdtRRRXxh6IUUUUAFFFFABXHay5a+l/2fl/KuxPAJ9BXDXz+Zd3Lf9NGr2Mpjeo5eRz13oVqKKK+jOQKKKKACiiigAooooAKKKKACiiigAq5p10bS6ik/hJ2uPY1ToqZwU4uL2YJ2dz0FWV1VlOQwBH40tc9o2pjAtZ2xjiJj/I10NfHYihKhNwkehCSkroKKKK5ywooooAK5XXLwTziFD8kXB92rW1XUktY2iiYGdxjj+EetckxZiWY5JJJPua93LMK7+2l8jmrT+yhKKKK945QooooAKKKKACrNjcG1uYpR0BAb3BqtRUyipxcX1BOzuegI6yIjqcqwBH406ub0bUwmLWdvl/5Zse3tXSAg4I6Gvj8Rh5UJuLPQhJSVwooormLCiiigArmNdvBLKtuh+WLl/QtWrqmopZxlEIM7DCgfw+5rkWZnZnY5ZiSSfU17eWYVt+2l8jmrT+yhtFFFfQHKFFFFABRRRQAUUUUAFFFFABRRRQAVJCds0Lekin9ajpQcEH05pNXVgO/jOY4z6qp/MU6q9k/mWtu3/TNR+QqxXw81yyaPSWqCiiipGFFFFADJW2xSt6Ix/SuCkbc8jerE129++y0uW9EP68Vw1fQZRH3ZSOWu9Ugooor2zmCiiigAooooAKKKKACiiigAooooAKKKKADkcjrW1Y63LAFiuAXjHAb+ICsWisq1GFaPLNDjJxd0dxBf2U4BSVfoxwf1qx5kX/PRP8AvoVwAJHIJH0p3mzf89H/ADNeTLKVf3ZHQq/dHcyXdpECXlQAe4J/SsW914fNHaDqCN7f0Fc8WZvvEn6mkrajllODvPUiVZvYc7vIzO7FmY5JNNoor1djEKKKKACiiigAooooAKKKKACtix1qa3CxTDzIxwD/ABAVj0VlVowrR5Zq44ycXdHbwahY3ABSVQfRjg/rVnzYv+eif99CuABI5BIPtTvNm/56P+ZryZZTG/uyOhV31R3Ml1axAl5UAH+0DWNe68g3JajJ5G89B9BXOlnb7zE/U0lbUcrpwd5u5Mqzew+SSSV2eRizMckmmUUV6qVtEYBRRRQAUUUUAFFFFABRRRQAUUUUAFFFFABRRRQB2OjPvsYv9ksP1rRrF8PPm2kT+63862q+OxceWvJeZ6FN3igooorlLCiiigDO1l9tjN/tYH61x1dXr5xZger1ylfT5WrUb+ZxV/iCiiivUMQooooAKKKKACipHidArEfKwyGHQ1HQmnsAUUUUAFFFFABRRRQAUUUUAFFFFABRRRQAUUUUAFFFFABRRRQAUUUUAFFFFABRRRQAUUUUAFFFFABRRRQAUUUUAFFFFABRRRQAUU5EeRgqAk+3b60Mu1iuckcHHrRdXsA2iiigAooooAKKKKAOh8Ovzcp/umuhrmfDx/fzr6rn8q6avlMxVsQzuo/AFFFFeeahRRRQBieIWxBAvq5/lXMV0XiInbbD/aJ/Sudr6vLlbDo4a3xhRRRXoGQUUUUAFFFFAFy0ukiJinUPbvwynqvutWbrSmVBcWjebA3zDHLKKyq0NO1KWyfa2Wgb7ynt7iuStCcX7Sjv1Xf/AIJcWnpIoEEEg8EdaSurm0/T9Si863Kq7DO5fX0Irn7rT7y0J8xCV7OvIpUMZTq+7s+zHKm46lSiiiuwzCiiigAooooAKKKKACiiigAooooAKKKKACiiigAooooAKKKKACiiigAooooAKKKKACiiigAooooAKKKmgtri4YLDGzH1A4H1NKUlFXYbkNXrPTbm7OQNkQ5Z24GPatey0SGEedeEEgZ25+Vfqaq6lqqsDa2nyxLwzLxntgYrz3i3Wl7PD/f0Rr7PlV5le6mtrZWtLTB7Szd2PoDWZRRXbTpqmrGbdwooorQQUUUUAFFFFAGtoLYvceqNXWVx+jEi+i91YV2FfM5orVr+R2UPhCiiivKNwooooArXtnFewmN+o5Ru4NcbdW01rK0UgIweD2I9RXd1VvbKG9iKOAHH3G7g16WCxroPll8P5GNSnzarc4eirF3aT2chjlH+63ZhVevqIyU1zR2OJq2jCiiimAUUUUAFFFFAFuyvriycNGcofvIehFdXa3dpfxcbSSPnjbGR+FcTUkM0sDrJExVgc8f1rgxWCjX95aSNYVHHTodLd6FbS7ngPluecfwmsC4sLy2JEkbYH8SjIroLDWoZ9sdxhJOgb+Fq1yEccgMp9cEV5ccXiMJLkqq/9dzb2cJq8Tz6iuvutFsrjLKPLc916flWNcaHew5MeJF9uv5V6lHMKNXrZ+ZjKlJGTRT3iljJWRGU+hGKZXemnqjIKKKKACiiigAooooAKKKKACiiigAooooAKKKKACiiigAooooAKKKKACilCsxwoJPoKv2+kX9xg7Ninu/FROrCmrzdhqLexn1LDb3E5AijZs9wOK6O20C2jw07GQjt0Fa8cUUShY0VQPQAV5VbNIR0pq5vGg3uYNpoHR7pvfYv9TWwBZWEJICRoo9smor7U7azUgkPL2QHn8a5W8vri8ctIx2/woOgFctOlXxr5qjtEtyjT0W5b1HVpbstHESkAPbq31rKoor3qVKFKPLBaHLKTk7sKKKK0EFFFFABRRRQAU5Ed2VEBLMcACljjkldUjUszHAArqtM0pLRRLKA05H4L9K5MVioYeN3v2LhBzYulaYtoglkGZ3H/fI9K1KKK+Uq1ZVZOctzujFRVkFFFFZFBRRRQAUUUUAQXNrBdRmOVQeOD3H0rlL/AEy4s2LY3RE/Kw7fWuypHRHUq6hlPBB5FduFxk8O7brsZzpqZ59RXQ6hof3pbT6mP/CsB45I2KyKVYdQwxX01DEU66vBnFKDjuNoooroJCiiigAooooAK07HV7m1IVyZIvQ9R9DWZRWdSlCrHlmrjUnF3R3Frf2l2AY3G7up4YVarz9HeNgyMVYcgg4rYtNeuI8LcDzE6bh94V4WIyuUdaWq7HVGsn8R0kkFvKMSRo31ArOn0OwlyUBjY/3eR+tXLe/s7kAxyrk/wk4IqzXmxqVqDsm0a2jI5ebw/drkxOrj34NUZdN1CLO6ByPVRkV21HB612wzStH4rMzdCL2PP2SReGVgfcU2u+eC3k4eND9QKqyaTpsnWEA+2a7IZtB/FEzdB9GcXRXWPoNg33dy/Sq7+HYf4JmH1ArojmVB9bEexkc3RW83h2X+GZfxqM+H7wdHjP51ssdh39oXspdjForXOgX/APej/M0n9g6h/sfmar65Q/mQvZy7GTRWv/YN/wCsf5mnDw/enq8Y/E0fXKH8yD2cuxjUVujw7P8AxSoPpmpk8Op/HO34AVm8ww6+0P2U+xzlFdUmgWQ+8zt9cVOmjaan/LLP1JrGWaUVtdlewkceAx4AJ+gqxHY3suNkDnPfHFdnHaWkX3IUH4Z/nUwAHQAfQVyzzb+SJaod2cnFoN++N+xB7nmtKDw/apgzOzn06CtqiuKpmFeel7ehqqUUQRWdnDjy4UGO+Mn9anqKW4t4BmWRVHuaxLzXwMparntvb+lY06FbEPRX8ynKMDbmuILdS8rqoHqeT9K5++115Mx2uVXoXPU/Ssie4uLhi8zsx9zwPwqGvcw2Wwp+9U1f4HNOs3ohzM7sWZizHqTyabRRXqmAUUUUAFFFFABRRSgEkADJPQCgBKsW1pcXbhIlz6nsPqav2GjT3BDzgxxeh+81dNb20FsgSJAoHX1P1ry8VmEKXuw1ZtCk5asq2GmwWSA4DTEfM5/pV+iivm6lSVSXNJ3Z2JJKyCiiioGFFFFABRRRQAUUUUAFFFFABVW7sLW8UiRBu7MOCKtUVUZyg+aLsxNJ6M5O80W6t8vF+9j9vvD6isohlJBBBHY16DVS506yugd8YDf3l4NezQzVrSqr+ZzyofynEUVt3OgXKEmBg69QD96smWC4hJWWNlPuK9mliKdX4Gc8oOO5FRRRW5IUUUUAFFFFACqzKQVJBHcHFaVtrV9b4Vj5iDs3X86zKtWVpJeTpGo+XILnsBWNaFOUW6q0RUW09DrNPvhfRmQRsmDjnofpVyo4IY4I0ijGFUY+vvUlfHVHFzbgrI9BXtqFFFFZjCiiigAooooAKKKKACiiigAooooAKKKKACiiigCOeXyIpJdpbYM4XrXN3Ov3UgKwqIx6/wAVdQQCCCMg8EGuT1jTzbSmaNf3Mhzx/Ca9TLlRlPlqLXoYVuZK6MySWaVi0jsxPqaZRRX06SWiOMKKKKACiiigAoopypI5ARWYnsBmi9gG0VqW+iX020uBGp/vdcVuWuj2VvgsvmP6v0H0FcFbMKNLrd+RrGlKRztppl5dkbUKp3duBXRWWkWlrh2HmS/3m6D6CtIBVAAAAHYUV4eIx9WtotEdMaUYhRRRXnmoUUUUAFFFFABRRRQAUUUUAFFFFABRRRQAUUUUAFFFFABTJIoZRtkRWHuKfRTTa1QGXPomny52qYyf7tZk/h+5TJhdXHoeDXT0V2U8dXp7Sv6mbpRZxEmnahHndA3Hcc1WaOReGRh9Qa9AqN4IJPvxo31Fd8M2l9qJk6C6M4Giu1fS9OfrAg+lV20LT26B1+hFdMc1ovdNEOhI5WON5XWNASzEAAV2Wm2KWUCrgeawBkPv6Uy00m0tJDKm5mxgbu30rQrz8djvb+5DY1pU+XVhRRRXlG4UUUUAFFFFABRRRQAUUUUAFFFFABRRRQAUUUUAFFFFABUc8Mc8TxSAFWBH096kopptO6A4e9tJbOZ43Hy5JQ9iKq13F5Y296irLkFTlWHUVTXQbAdS5+pFfRUs0p8i9puckqLvocnShWPRSfoDXZJpGmp/yxB/3qspa2sf3IUH0FKWbQXwxYKg+rOLjsr2TGyFzn2x/Or8OhX0mDJtjHv1/SurAA6ACiuSea1ZfCkjRUI9THg0CzTmVmkPp2rShtbWAARRIvuBzU1FefUxFWr8cjVQUdkFFFFYFBRRRQAUUUUAFFFFABRRRQAUUUUAFFFFABRRRQAUUUUAFFFFABRRRQAUUUUAFFFFABRRRQAUUUUAFFFFABRRRQAUUUUAFFFFABRRRQAUUUUAFFFFABRRRQAUUUUAFFFFABRRRQAUUUUAFFFFABRRRQAUUUUAFFFFABRRRQAUUUUAFFFFABRRRQAUUUUAFFFFABRRRQAUUUUAFFFFABRRRQAUUUUAFFFFABRRRQAUUUUAFFFFABRRRQAUUUUAFFFFABRRRQAUUUUAFFFFABRRRQAUUUUAFFFFABRRRQAUUUUAFFFFABRRRQAUUUUAFFFFABRRRQAUUUUAFFFFABRRRQAUUUUAFFFFABRRRQAUUUUAFFFFABRRRQAUUUUAFFFFABRRRQAUUUUAFFFFABRRRQAUUUUAFFFFABRRRQAUUUUAFFFFABRRRQAUUUUAFFFFABRRRQAUUUUAFFFFABRRRQAUUUUAFFFFABRRRQAUUUUAFFFFABRRRQAUUUUAFFFFABRRRQAUUUUAFFFFABRRRQAUUUUAFFFFABRRRQAUUUUAFFFFABRRRQAUUUUAFFFFABRRRQAUUUUAFFFFABRRRQAUUUUAFFFFABRRRQAUUUUAFFFFABRRRQAUUUUAFFFFABRRRQAUUUUAFFFFABRRRQAUUUUAFFFFABRRRQAUUUUAFFFFABRRRQAUUUUAFFFFABRRRQAUUUUAFFFFABRRRQAUUUUAFFFFABRRRQAUUUUAFFFFABRRRQAUUUUAFFFFABRRRQAUUUUAFFFFABRRRQAUUUUAFFFFABRRRQAUUUUAFFFFABRRRQAUUUUAf//Z;" vertex="1" parent="1">
          <mxGeometry x="118" y="330" width="64" height="64" as="geometry" />
        </mxCell>
        <mxCell id="1bbq5gz2MpMv35pWeNZD-4" value="Discordpy&lt;br&gt;Server" style="sketch=0;outlineConnect=0;fontColor=#232F3E;gradientColor=none;fillColor=#232F3D;strokeColor=none;dashed=0;verticalLabelPosition=bottom;verticalAlign=top;align=center;html=1;fontSize=12;fontStyle=0;aspect=fixed;pointerEvents=1;shape=mxgraph.aws4.traditional_server;" vertex="1" parent="1">
          <mxGeometry x="300" y="340.34000000000003" width="25" height="43.33" as="geometry" />
        </mxCell>
        <mxCell id="1bbq5gz2MpMv35pWeNZD-6" value="" style="sketch=0;points=[[0,0,0],[0.25,0,0],[0.5,0,0],[0.75,0,0],[1,0,0],[0,1,0],[0.25,1,0],[0.5,1,0],[0.75,1,0],[1,1,0],[0,0.25,0],[0,0.5,0],[0,0.75,0],[1,0.25,0],[1,0.5,0],[1,0.75,0]];outlineConnect=0;fontColor=#232F3E;fillColor=#E7157B;strokeColor=#ffffff;dashed=0;verticalLabelPosition=bottom;verticalAlign=top;align=center;html=1;fontSize=12;fontStyle=0;aspect=fixed;shape=mxgraph.aws4.resourceIcon;resIcon=mxgraph.aws4.api_gateway;" vertex="1" parent="1">
          <mxGeometry x="283.5" y="181" width="58" height="58" as="geometry" />
        </mxCell>
        <mxCell id="1bbq5gz2MpMv35pWeNZD-7" style="edgeStyle=orthogonalEdgeStyle;rounded=0;orthogonalLoop=1;jettySize=auto;html=1;entryX=0;entryY=0.5;entryDx=0;entryDy=0;entryPerimeter=0;" edge="1" parent="1" source="1bbq5gz2MpMv35pWeNZD-1" target="1bbq5gz2MpMv35pWeNZD-6">
          <mxGeometry relative="1" as="geometry" />
        </mxCell>
        <mxCell id="1bbq5gz2MpMv35pWeNZD-8" style="edgeStyle=orthogonalEdgeStyle;rounded=0;orthogonalLoop=1;jettySize=auto;html=1;entryX=0.5;entryY=1;entryDx=0;entryDy=0;entryPerimeter=0;" edge="1" parent="1" source="1bbq5gz2MpMv35pWeNZD-4" target="1bbq5gz2MpMv35pWeNZD-6">
          <mxGeometry relative="1" as="geometry" />
        </mxCell>
        <mxCell id="1bbq5gz2MpMv35pWeNZD-12" style="edgeStyle=orthogonalEdgeStyle;rounded=0;orthogonalLoop=1;jettySize=auto;html=1;" edge="1" parent="1" source="1bbq5gz2MpMv35pWeNZD-9" target="1bbq5gz2MpMv35pWeNZD-11">
          <mxGeometry relative="1" as="geometry" />
        </mxCell>
        <mxCell id="1bbq5gz2MpMv35pWeNZD-9" value="" style="outlineConnect=0;dashed=0;verticalLabelPosition=bottom;verticalAlign=top;align=center;html=1;shape=mxgraph.aws3.lambda_function;fillColor=#F58534;gradientColor=none;" vertex="1" parent="1">
          <mxGeometry x="425" y="174" width="69" height="72" as="geometry" />
        </mxCell>
        <mxCell id="1bbq5gz2MpMv35pWeNZD-10" style="edgeStyle=orthogonalEdgeStyle;rounded=0;orthogonalLoop=1;jettySize=auto;html=1;entryX=0;entryY=0.5;entryDx=0;entryDy=0;entryPerimeter=0;" edge="1" parent="1" source="1bbq5gz2MpMv35pWeNZD-6" target="1bbq5gz2MpMv35pWeNZD-9">
          <mxGeometry relative="1" as="geometry" />
        </mxCell>
        <mxCell id="1bbq5gz2MpMv35pWeNZD-11" value="" style="outlineConnect=0;dashed=0;verticalLabelPosition=bottom;verticalAlign=top;align=center;html=1;shape=mxgraph.aws3.dynamo_db;fillColor=#2E73B8;gradientColor=none;" vertex="1" parent="1">
          <mxGeometry x="570" y="169" width="72" height="81" as="geometry" />
        </mxCell>
      </root>
    </mxGraphModel>
  </diagram>
</mxfile>
